<svg width="21" height="18" viewBox="0 0 21 18" fill="none" xmlns="http://www.w3.org/2000/svg">
<path fill-rule="evenodd" clip-rule="evenodd" d="M4.33929 17.6612L4.2463 14.8716C4.24359 14.7903 4.19593 14.7178 4.12346 14.6808C2.71349 13.9595 0.11145 11.7193 0.11145 8C0.11145 3.21739 4.24188 0.5 9.02449 0.5C13.7003 0.5 17.8566 3.6168 18.0399 8.12367C18.0461 8.27441 17.8959 8.38179 17.7512 8.33913C17.2449 8.1899 16.3908 8 15.5462 8C14.2419 8 10.0028 8.43478 10.0028 12.7826C10.0028 14.0552 10.3547 14.9442 10.6907 15.4643C10.8022 15.6369 10.6755 15.9348 10.47 15.9348H8.53233C8.49859 15.9348 8.4653 15.9426 8.43511 15.9577L4.65378 17.8484C4.51205 17.9193 4.34457 17.8196 4.33929 17.6612ZM20.1114 13C20.1114 14.468 19.1908 15.7472 17.8288 16.4167V17.5112C17.8288 17.6793 17.6461 17.7838 17.5012 17.6986L16.1287 16.8912C15.973 16.9056 15.8149 16.913 15.6549 16.913C13.1937 16.913 11.1984 15.1611 11.1984 13C11.1984 10.8389 13.1937 9.08696 15.6549 9.08696C18.1162 9.08696 20.1114 10.8389 20.1114 13Z" fill="white"/>
</svg>
