<svg width="19" height="19" viewBox="0 0 19 19" fill="none" xmlns="http://www.w3.org/2000/svg">
<path fill-rule="evenodd" clip-rule="evenodd" d="M18.3286 7.91559L11.1285 1.00271C10.4285 0.33243 9.33855 0.33243 8.64855 1.00271L1.44855 7.91559C1.08855 8.25573 0.88855 8.73593 0.88855 9.23614V16.6792C0.88855 17.6797 1.69855 18.5 2.68855 18.5H17.0886C18.0786 18.5 18.8885 17.6897 18.8885 16.6792V9.23614C18.8885 8.73593 18.6886 8.25573 18.3286 7.91559ZM8.3657 16.1333C8.32572 16.3278 8.54161 16.5 8.82147 16.5C8.98938 16.5 9.1413 16.4389 9.22126 16.3389C9.34224 16.1922 9.54553 15.945 9.83144 15.5973C10.5848 14.6811 11.912 13.0672 13.8189 10.7556C13.9948 10.4944 13.8189 10.3889 13.4991 10.3889H10.6925L11.4121 6.86667C11.4521 6.67222 11.2362 6.5 10.9564 6.5C10.7965 6.5 10.6365 6.56111 10.5566 6.66111C9.64422 7.77679 8.83346 8.76517 8.12583 9.62783C7.28304 10.6552 6.58654 11.5043 6.03889 12.1778C6.0384 12.1783 6.03751 12.1792 6.03626 12.1804C5.99695 12.2197 5.60474 12.6111 6.28676 12.6111H9.08533L8.3657 16.1333Z" fill="#979A97"/>
</svg>
