<svg width="61" height="61" viewBox="0 0 61 61" fill="none" xmlns="http://www.w3.org/2000/svg">
<circle cx="30.2308" cy="30.2308" r="30.2308" fill="#FE0000"/>
<path fill-rule="evenodd" clip-rule="evenodd" d="M40.0788 18.8765C39.095 17.8927 37.4999 17.8927 36.5161 18.8765L30.0715 25.3212L23.6268 18.8765C22.643 17.8927 21.0479 17.8927 20.0641 18.8765L18.8765 20.0641C17.8927 21.0479 17.8927 22.643 18.8765 23.6268L25.3212 30.0715L18.8766 36.5161C17.8927 37.4999 17.8927 39.095 18.8766 40.0788L20.0641 41.2664C21.0479 42.2502 22.643 42.2502 23.6269 41.2664L30.0715 34.8218L36.5161 41.2664C37.4999 42.2502 39.095 42.2502 40.0788 41.2664L41.2664 40.0788C42.2502 39.095 42.2502 37.4999 41.2664 36.5161L34.8218 30.0715L41.2664 23.6268C42.2502 22.643 42.2502 21.0479 41.2664 20.0641L40.0788 18.8765Z" fill="#101014"/>
</svg>
